<svg xmlns="http://www.w3.org/2000/svg" width="142" height="31" viewBox="0 0 142 31">
  <g fill="#fff" fill-rule="evenodd" transform="translate(0 .419)">
    <path d="M75.3734537 21.3505378C73.8412816 22.9072405 72.0082816 23.6897811 69.8840769 23.6897811 68.1661362 23.6897811 66.7063469 23.3391459 65.2164329 22.4724027L65.2164329 18.9036324C66.4151421 19.7175919 67.9209552 20.4925919 69.4058484 20.4925919 72.5045012 20.4925919 74.3487979 18.3573622 74.3487979 15.3315108 74.3487979 12.3031459 72.4413231 10.1046595 69.3414151 10.1046595 67.9569374 10.1046595 66.834795 10.603173 65.9582519 11.6018757 65.0185309 12.6839432 64.5327712 14.2305919 64.5327712 16.2753351L64.5327712 30.3673486 64.2993053 30.3673486C62.5914062 30.3673486 61.2077653 28.9815649 61.2077653 27.2719568L61.2077653 15.7466595C61.2077653 10.8557811 64.1938691 6.90705135 69.3263528 6.90705135 71.8605872 6.90705135 73.9186852 7.77463243 75.4793083 9.51775405 76.9466288 11.1465108 77.6738039 13.2101054 77.6738039 15.6934568 77.6738039 17.9032541 76.9064626 19.7929973 75.3734537 21.3505378L75.3734537 21.3505378zM111.374059 21.2311459C109.847745 22.8716324 107.883786 23.6897811 105.502685 23.6897811 102.988952 23.6897811 100.940896 22.8222 99.3819463 21.0790784 97.9154626 19.4302135 97.1878691 17.3649432 97.1878691 14.9037946 97.1878691 10.5474568 100.545928 6.90705135 104.965044 6.90705135 106.669596 6.90705135 108.149469 7.26732162 109.644822 8.0884027L109.644822 11.6936189C108.446112 10.8796595 106.940718 10.1046595 105.455825 10.1046595 102.357172 10.1046595 100.512038 12.2394703 100.512038 15.2665784 100.512038 18.2522135 102.464282 20.4925919 105.519003 20.4925919 106.902225 20.4925919 108.041522 19.9735514 108.952792 18.9279297 109.858204 17.8890108 110.328902 16.3624703 110.328902 14.3118622L110.328902 3.09530811C110.328902 1.38528108 111.71338-.0000837837838 113.420442-.0000837837838L113.653908-.0000837837838 113.653908 14.8380243C113.653908 17.4512405 112.8987 19.5902405 111.374059 21.2311459L111.374059 21.2311459zM120.76332 5.32311892C120.414377 5.71438919 119.914391 5.89452432 119.303949 5.89452432 118.162561 5.89452432 117.345848 5.05165946 117.345848 3.91764595 117.345848 2.75682162 118.147498 1.97344324 119.303949 1.97344324 120.416887 1.97344324 121.26205 2.79955135 121.26205 3.91764595 121.26205 4.47061892 121.10013 4.94483514 120.76332 5.32311892L120.76332 5.32311892zM137.657798 14.3118622C137.657798 12.9993892 137.161997 11.9604703 136.165792 11.1733216 135.268329 10.4649297 134.147442 10.1046595 132.783466 10.1046595 129.773931 10.1046595 127.841771 12.4602405 127.841771 15.3646054 127.841771 18.1600514 129.889828 20.4925919 132.751667 20.4925919 134.742403 20.4925919 135.806807 19.3284162 136.94192 17.8781189L136.94192 22.0597676C136.363694 22.4937676 135.698442 22.966727 135.019382 23.2444703 134.302667 23.5439973 133.447044 23.6897811 132.458789 23.6897811 127.672739 23.6897811 124.516765 19.7209432 124.516765 15.1346189 124.516765 12.7794568 125.247288 10.8323216 126.718374 9.31415946 128.278997 7.70509189 130.326216 6.90705135 132.832418 6.90705135 137.58416 6.90705135 140.983641 9.63882162 140.983641 14.5749432L140.983641 23.3609297 140.751012 23.3609297C139.042276 23.3609297 137.657798 21.9751459 137.657798 20.2651189L137.657798 14.3118622zM92.141157 13.3688757C91.7210858 12.0677135 91.1943231 11.4276054 89.9826436 10.7502135 87.1011392 9.13821351 84.2652401 10.5105919 82.9460323 13.3563081L92.141157 13.3688757zM89.6039938 23.6407676C87.4802074 24.0927811 85.3961688 23.7442405 83.3631748 22.6064568 81.3795516 21.4975784 80.0515576 19.8482946 79.3858869 17.6690784 78.0399018 13.2616324 80.7971421 8.35022703 85.2317386 7.16091622 87.4299997 6.5714973 89.5374685 6.83834865 91.5399196 7.95853784 94.8657623 9.82021351 96.0778602 12.6994432 95.866151 16.4093892L82.4703142 16.3825784C82.6677979 17.8957135 83.6045902 19.0795784 84.9217059 19.8160378 86.2568128 20.5629703 87.4843914 20.7414297 88.6228513 20.3878622 89.8876674 19.9903081 90.9135783 18.9568351 91.7478632 17.9949973L94.4779077 19.9865378C93.3645516 21.9814297 91.848697 23.1623622 89.6039938 23.6407676L89.6039938 23.6407676zM117.641655 7.23632162L120.966243 7.23632162 120.966243 23.3609297 120.732359 23.3609297C119.026133 23.3609297 117.641655 21.9751459 117.641655 20.2651189L117.641655 7.23632162zM4.86592255 23.3608459C1.6137178 23.3608459-.0000418397623 21.1460216-.0000418397623 18.0531432L-.0000418397623 6.31880541C-.0000418397623 4.6091973 1.38443591 3.22341351 3.09191662 3.22341351L3.32538249 3.22341351 3.32538249 7.23623784 8.94320742 7.23623784 8.94320742 10.4338459 3.32538249 10.4338459 3.32538249 18.4234676C3.32538249 19.7820216 3.93080386 20.1636568 5.2274181 20.1636568L8.94320742 20.1636568 8.94320742 23.3608459 4.86592255 23.3608459zM24.1762282 21.3228054C22.5335991 22.8996162 20.5591807 23.6896973 18.2655249 23.6896973 15.9932074 23.6896973 14.0300858 22.8987784 12.3874567 21.3228054 10.7393884 19.7401297 9.91765549 17.7259676 9.91765549 15.2987514 9.91765549 10.5632919 13.5292638 6.90738649 18.2655249 6.90738649 20.5386792 6.90738649 22.5072401 7.70417027 24.1599107 9.29187297 25.8184389 10.8841838 26.6468662 12.8924811 26.6468662 15.2987514 26.6468662 17.7259676 25.8242964 19.7401297 24.1762282 21.3228054L24.1762282 21.3228054zM39.721792 11.1162649C39.2339404 11.9352514 38.8557089 12.5225757 38.589608 12.8774 38.2963113 13.2632243 38.0067801 13.5715486 37.7197593 13.7847784 40.0305694 14.5321297 40.8912134 16.1349135 40.8912134 18.5227514L40.8912134 23.3608459 40.6577475 23.3608459C38.9502668 23.3608459 37.565789 21.9750622 37.565789 20.2650351L37.565789 18.8511838C37.565789 17.3049541 36.8733409 16.2559811 35.2369878 16.2559811L32.2174122 16.2559811 32.2174122 23.3608459 31.9839463 23.3608459C30.2764656 23.3608459 28.893243 21.9750622 28.893243 20.2650351L28.893243 3.09522432C28.893243 1.3851973 30.2764656-.000167567568 31.9839463-.000167567568L32.2174122-.000167567568 32.2174122 13.0256973 33.2002282 13.0256973C34.2801125 13.0256973 34.9897148 12.6557919 35.3972341 11.9561973L38.1900383 7.23707568 41.9786288 7.23330541 39.721792 11.1162649zM56.8857178 21.3228054C55.2426703 22.8996162 53.2682519 23.6896973 50.9745961 23.6896973 48.702697 23.6896973 46.7395754 22.8987784 45.0965279 21.3228054 43.4484596 19.7401297 42.6267267 17.7259676 42.6267267 15.2987514 42.6267267 10.5632919 46.238335 6.90738649 50.9745961 6.90738649 53.2481688 6.90738649 55.2163113 7.70417027 56.8694003 9.29187297 58.5279285 10.8841838 59.3559374 12.8924811 59.3559374 15.2987514 59.3559374 17.7259676 58.5337861 19.7401297 56.8857178 21.3228054L56.8857178 21.3228054zM54.485789 11.5460757C53.5690798 10.5863324 52.405516 10.1045757 50.9745961 10.1045757 47.9148543 10.1045757 46.0831095 12.3382514 46.0831095 15.2987514 46.0831095 18.2181973 47.9583677 20.4925081 50.9745961 20.4925081 53.9920798 20.4925081 55.8665012 18.2181973 55.8665012 15.2987514 55.8665012 13.7487514 55.401243 12.5049811 54.485789 11.5460757L54.485789 11.5460757zM21.7762994 11.5460757C20.8600086 10.5863324 19.6960264 10.1045757 18.2655249 10.1045757 15.2057831 10.1045757 13.3740383 12.3382514 13.3740383 15.2987514 13.3740383 18.2181973 15.2492964 20.4925081 18.2655249 20.4925081 21.2825902 20.4925081 23.1570116 18.2181973 23.1570116 15.2987514 23.1570116 13.7487514 22.6921718 12.5049811 21.7762994 11.5460757L21.7762994 11.5460757z"/>
  </g>
</svg>